# xmcd
#
# Track frame offsets: 
#        150
#        16200
#        34465
#        53237
#        72115
#        89595
#        108622
#        127642
#        146602
#        163750
#        181377
#        198850
#        216232
#        231922
#        250009
#        268130
#        285830
#        302417
#        331650
#
# Disc length: 4429 seconds
#
# Revision: 7
# Processed by: cddbd v1.5.2PL0 Copyright (c) Steve Scherf et al.
# Submitted via: ExactAudioCopy v0.95b4
#
DISCID=0a114b13
DTITLE=Various Artist - Super Eurobeat 78
DYEAR=1997
DGENRE=Eurobeat
TTITLE0=Lolita - Higher and Higher
TTITLE1=Cherry - Give Me The Night
TTITLE2=Overload - Go Go Guys
TTITLE3=Morris and Cherry - Go Say Goal
TTITLE4=Jean Corraine - Mystery
TTITLE5=Harmony - Forever Love
TTITLE6=D.Essex - Thank You - Arigato
TTITLE7=Robert Patton - Love Is Free
TTITLE8=Norma Sheffield - Party Time
TTITLE9=Love and Pride - Love and Passion
TTITLE10=Black Power - Love and Business
TTITLE11=Angie Davis - You
TTITLE12=Go Go Girls - My Sweet Banana
TTITLE13=Niki Niki feat. Karen - Boom Boom Baby
TTITLE14=Doki Doki - Sing Na Na Na
TTITLE15=Mr. Groove - Night and Day
TTITLE16=Delta Queens - Dance Around The World
TTITLE17=Mega NRG Man - Get Me Power
TTITLE18=Data Track - Data Track
EXTD=YEAR: 1997
EXTT0=
EXTT1=
EXTT2=
EXTT3=
EXTT4=
EXTT5=
EXTT6=
EXTT7=
EXTT8=
EXTT9=
EXTT10=
EXTT11=
EXTT12=
EXTT13=
EXTT14=
EXTT15=
EXTT16=
EXTT17=
EXTT18=
PLAYORDER=
